<?xml version="1.0" encoding="UTF-8"?><svg id="Layer_1" xmlns="http://www.w3.org/2000/svg" xmlns:xlink="http://www.w3.org/1999/xlink" viewBox="0 0 595.28 841.89"><defs><style>.cls-1{fill:none;}.cls-1,.cls-2,.cls-3{stroke-width:0px;}.cls-2{fill:url(#New_Pattern);}.cls-3{fill:#13253f;}</style><pattern id="New_Pattern" x="0" y="0" width="178.28" height="119.61" patternTransform="translate(-564.95 350.98)" patternUnits="userSpaceOnUse" viewBox="0 0 178.28 119.61"><rect class="cls-1" width="178.28" height="119.61"/><path class="cls-3" d="m35.01,112.77c1.05-1.88,2.1-3.76,3.16-5.64,1.17-2.1,2.35-4.2,3.52-6.29,1.02-1.82,2.04-3.64,3.06-5.47.84-1.5,1.73-2.98,2.46-4.54.58-1.26,1.11-2.54,1.56-3.85.47-1.4.91-2.89.91-4.38v-.63c0-8.82-7.15-15.97-15.97-15.97H0v32.58h25.66v18.22h7.09l.28-.5c.66-1.17,1.31-2.35,1.97-3.52Z"/><path class="cls-3" d="m0,9.54h19.81c9.91,0,17.96,8.05,17.96,17.96h0c0,9.91-8.05,17.96-17.96,17.96H0V9.54H0Z"/><path class="cls-3" d="m54.46,16.38c-1.05,1.88-2.1,3.76-3.16,5.64-1.17,2.1-2.35,4.2-3.52,6.29-1.02,1.82-2.04,3.64-3.06,5.47-.84,1.5-1.73,2.98-2.46,4.54-.58,1.26-1.11,2.54-1.56,3.85-.47,1.4-.91,2.89-.91,4.38v.63c0,8.82,7.15,15.97,15.97,15.97h33.69V30.58h-25.66V12.36h-7.09l-.28.5c-.66,1.17-1.31,2.35-1.97,3.52Z"/><path class="cls-3" d="m69.65,83.69h19.81s0,35.93,0,35.93h-19.81c-9.92,0-17.96-8.04-17.96-17.96h0c0-9.92,8.04-17.96,17.96-17.96Z"/><path class="cls-3" d="m123.83,103.23c1.05-1.88,2.1-3.76,3.16-5.64,1.17-2.1,2.35-4.2,3.52-6.29,1.02-1.82,2.04-3.64,3.06-5.47.84-1.5,1.73-2.98,2.46-4.54.58-1.26,1.11-2.54,1.56-3.85.47-1.4.91-2.89.91-4.38v-.63c0-8.82-7.15-15.97-15.97-15.97h-33.69v32.58h25.66v18.22h7.09l.28-.5c.66-1.17,1.31-2.35,1.97-3.52Z"/><path class="cls-3" d="m88.82,0h19.81C118.54,0,126.59,8.05,126.59,17.96h0c0,9.91-8.05,17.96-17.96,17.96h-19.81V0h0Z"/><path class="cls-3" d="m143.28,6.84c-1.05,1.88-2.1,3.76-3.16,5.64-1.17,2.1-2.35,4.2-3.52,6.29-1.02,1.82-2.04,3.64-3.06,5.47-.84,1.5-1.73,2.98-2.46,4.54-.58,1.26-1.11,2.54-1.56,3.85-.47,1.4-.91,2.89-.91,4.38v.63c0,8.82,7.15,15.97,15.97,15.97h33.69V21.05h-25.66V2.82h-7.09l-.28.5c-.66,1.17-1.31,2.35-1.97,3.52Z"/><path class="cls-3" d="m158.48,74.15h19.81s0,35.93,0,35.93h-19.81c-9.92,0-17.96-8.04-17.96-17.96h0c0-9.92,8.04-17.96,17.96-17.96Z"/></pattern></defs><rect class="cls-2" width="595.28" height="841.89"/></svg>