<?xml version="1.0" encoding="UTF-8"?><svg id="Layer_1" xmlns="http://www.w3.org/2000/svg" viewBox="0 0 110.5 139.92"><defs><style>.cls-1{fill:#1d1d1b;stroke-width:0px;}</style></defs><path class="cls-1" d="m78.43,67.54c9.97-6.59,16.56-17.88,16.56-30.73C94.99,16.48,78.51,0,58.18,0H.11v67.31h-.11v73.63h53.32v-20.54h-28.93v-36.73h37.99c9.95,0,18.01,8.06,18.01,18.01v.71c0,1.68-.5,3.36-1.03,4.94-.5,1.48-1.1,2.93-1.76,4.34-.81,1.76-1.82,3.43-2.77,5.12-1.15,2.05-2.3,4.11-3.45,6.16-1.32,2.36-2.65,4.73-3.97,7.1-1.19,2.12-2.37,4.24-3.56,6.36-.74,1.32-1.48,2.64-2.22,3.97l-.32.56h13.08c19.94,0,36.1-16.16,36.1-36.1v-1.43c0-18.58-14.04-33.86-32.08-35.86ZM24.47,20.48h22.33c11.18,0,20.25,9.07,20.25,20.25s-9.07,20.25-20.25,20.25h-22.33V20.48Z"/></svg>