<?xml version="1.0" encoding="UTF-8"?><svg id="Layer_1" xmlns="http://www.w3.org/2000/svg" viewBox="0 0 307.38 75.51"><defs><style>.cls-1{fill:#fff;}.cls-1,.cls-2{stroke-width:0px;}.cls-2{fill:#ee626c;}</style></defs><path class="cls-2" d="m51.7,6.51c0-3.74,2.69-6.51,6.43-6.51s6.43,2.77,6.43,6.51-2.69,6.43-6.43,6.43-6.43-2.69-6.43-6.43Zm1.54,11.64h9.68v40.2h-9.68V18.15Z"/><path class="cls-2" d="m70.66,38.24c0-12.21,8.95-21.16,21.64-21.16s21.64,8.95,21.64,21.16-8.95,21.16-21.64,21.16-21.64-8.95-21.64-21.16Zm33.44,0c0-7.08-4.72-12.12-11.8-12.12s-11.88,5.05-11.88,12.12,4.8,12.12,11.88,12.12,11.8-5.04,11.8-12.12Z"/><path class="cls-1" d="m121.77,5.13h18.88c18.63,0,28.4,10.66,28.4,26.61s-9.76,26.61-28.4,26.61h-18.88V5.13Zm18.88,43.61c12.29,0,17.82-6.67,17.82-17.01s-5.53-16.92-17.82-16.92h-8.46v33.93h8.46Z"/><path class="cls-1" d="m175.8,34.99c0-12.12,7.16-17.9,17.66-17.9s17.57,5.78,17.57,18.06v.25h-9.6v-.41c0-6.51-3.25-8.87-7.97-8.87s-7.98,2.36-7.98,8.87v23.35h-9.68v-23.35Z"/><path class="cls-1" d="m214.62,38.24c0-12.21,8.95-21.16,21.64-21.16s21.64,8.95,21.64,21.16-8.95,21.16-21.64,21.16-21.64-8.95-21.64-21.16Zm33.44,0c0-7.08-4.72-12.12-11.8-12.12s-11.88,5.05-11.88,12.12,4.8,12.12,11.88,12.12,11.8-5.04,11.8-12.12Z"/><path class="cls-1" d="m264.26,38.57c0-13.02,8.79-21.48,21.4-21.48s21.73,8.79,21.73,21.56c0,13.75-10.25,20.75-20.02,20.75-5.78,0-10.58-2.44-13.43-6.92v23.03h-9.68v-36.94Zm33.36-.33c0-7.08-4.8-12.12-11.88-12.12s-11.8,5.05-11.8,12.12,4.72,12.12,11.8,12.12,11.88-5.04,11.88-12.12Z"/><path class="cls-2" d="m32.3,27.82c4.11-2.71,6.82-7.37,6.82-12.66C39.12,6.79,32.34,0,23.96,0H.04v27.72h-.04v30.33h21.96v-8.46h-11.92v-15.13h15.65c4.1,0,7.42,3.32,7.42,7.42v.29c0,.69-.2,1.38-.42,2.03-.21.61-.45,1.2-.72,1.79-.34.72-.75,1.41-1.14,2.11-.47.85-.95,1.69-1.42,2.54-.54.97-1.09,1.95-1.63,2.92-.49.87-.98,1.75-1.47,2.62-.3.54-.61,1.09-.91,1.63l-.13.23h5.39c8.21,0,14.87-6.66,14.87-14.87v-.59c0-7.65-5.78-13.95-13.21-14.77ZM10.08,8.44h9.2c4.61,0,8.34,3.73,8.34,8.34s-3.73,8.34-8.34,8.34h-9.2V8.44Z"/></svg>